# xmcd
#
# Track frame offsets:
#	150
#	9377
#	24265
#	43202
#	60667
#	72340
#	86245
#	89665
#	106717
#	122255
#	135182
#	151572
#
# Disc length: 2210 seconds
#
# Revision: 1
# Processed by: cddbd v1.5PL3 Copyright (c) Steve Scherf et al.
# Submitted via: audiograbber 1.83.01
#
DISCID=8808a00c
DTITLE=The Bagboys - Just Say Moo
DYEAR=1900
DGENRE=
TTITLE0=Lost And I'll Never Find The Way
TTITLE1=What Do You Dream?
TTITLE2=Hank's Song
TTITLE3=Deep Water
TTITLE4=Hindsight Is 50/50
TTITLE5=A Two Step's One Too Many For Me
TTITLE6=Just Say Moo
TTITLE7=I've Got The Blues For You
TTITLE8=That's Right! (I May Be Wrong)
TTITLE9=Unpackin' Jackson
TTITLE10=Wild Bill Jones
TTITLE11=Days Of August
EXTD=
EXTT0=
EXTT1=
EXTT2=
EXTT3=
EXTT4=
EXTT5=
EXTT6=
EXTT7=
EXTT8=
EXTT9=
EXTT10=
EXTT11=
PLAYORDER=
